# Blender v2.80 (sub 75) OBJ File: 'heart_animation.blend'
# www.blender.org
mtllib ring.mtl
o SuperToroid
v 1.113704 0.114009 0.036529
v 1.038428 0.114009 -0.145204
v 0.934223 0.114009 -0.243738
v 0.882137 0.114009 -0.200985
v 0.783756 0.114009 0.036529
v 0.882137 0.114009 0.274043
v 0.934223 0.114009 0.316796
v 1.038428 0.114009 0.218262
v 1.028929 -0.312187 0.036529
v 0.959382 -0.283380 -0.145204
v 0.863109 -0.243503 -0.243738
v 0.814989 -0.223571 -0.200985
v 0.724096 -0.185922 0.036529
v 0.814989 -0.223571 0.274043
v 0.863109 -0.243503 0.316796
v 0.959382 -0.283381 0.218261
v 0.787508 -0.673499 0.036529
v 0.734280 -0.620271 -0.145204
v 0.660595 -0.546586 -0.243738
v 0.623765 -0.509757 -0.200985
v 0.554199 -0.440190 0.036529
v 0.623765 -0.509757 0.274043
v 0.660595 -0.546587 0.316796
v 0.734280 -0.620271 0.218261
v 0.426196 -0.914920 0.036529
v 0.397389 -0.845374 -0.145204
v 0.357512 -0.749101 -0.243738
v 0.337579 -0.700980 -0.200985
v 0.299930 -0.610087 0.036529
v 0.337579 -0.700980 0.274043
v 0.357512 -0.749101 0.316796
v 0.397389 -0.845374 0.218261
v -0.000000 -0.999695 0.036529
v -0.000000 -0.924419 -0.145204
v -0.000000 -0.820214 -0.243738
v -0.000000 -0.768129 -0.200985
v -0.000000 -0.669747 0.036529
v -0.000000 -0.768129 0.274043
v -0.000000 -0.820214 0.316795
v -0.000000 -0.924420 0.218261
v -0.426196 -0.914920 0.036529
v -0.397389 -0.845374 -0.145204
v -0.357512 -0.749101 -0.243738
v -0.337579 -0.700980 -0.200985
v -0.299930 -0.610087 0.036529
v -0.337579 -0.700980 0.274043
v -0.357512 -0.749101 0.316796
v -0.397389 -0.845374 0.218261
v -0.787508 -0.673499 0.036529
v -0.734280 -0.620271 -0.145204
v -0.660595 -0.546586 -0.243738
v -0.623765 -0.509757 -0.200985
v -0.554199 -0.440190 0.036529
v -0.623765 -0.509757 0.274043
v -0.660595 -0.546587 0.316796
v -0.734280 -0.620271 0.218261
v -1.028929 -0.312187 0.036529
v -0.959382 -0.283380 -0.145204
v -0.863109 -0.243503 -0.243738
v -0.814989 -0.223571 -0.200985
v -0.724096 -0.185922 0.036529
v -0.814989 -0.223571 0.274043
v -0.863109 -0.243503 0.316796
v -0.959382 -0.283381 0.218261
v -1.113704 0.114009 0.036529
v -1.038428 0.114009 -0.145204
v -0.934223 0.114009 -0.243738
v -0.882137 0.114009 -0.200985
v -0.783756 0.114009 0.036529
v -0.882137 0.114009 0.274043
v -0.934223 0.114009 0.316796
v -1.038428 0.114009 0.218262
v -1.028929 0.540205 0.036529
v -0.959382 0.511398 -0.145203
v -0.863109 0.471520 -0.243738
v -0.814989 0.451588 -0.200985
v -0.724096 0.413939 0.036529
v -0.814989 0.451588 0.274043
v -0.863109 0.471520 0.316796
v -0.959382 0.511398 0.218262
v -0.787508 0.901516 0.036529
v -0.734280 0.848288 -0.145203
v -0.660595 0.774604 -0.243737
v -0.623765 0.737774 -0.200985
v -0.554199 0.668208 0.036529
v -0.623765 0.737774 0.274043
v -0.660595 0.774604 0.316796
v -0.734280 0.848288 0.218262
v -0.426196 1.142937 0.036530
v -0.397389 1.073391 -0.145203
v -0.357512 0.977118 -0.243737
v -0.337579 0.928998 -0.200984
v -0.299930 0.838105 0.036529
v -0.337579 0.928997 0.274043
v -0.357512 0.977118 0.316796
v -0.397389 1.073391 0.218262
v -0.000000 1.227713 0.036530
v -0.000000 1.152437 -0.145203
v -0.000000 1.048232 -0.243737
v -0.000000 0.996146 -0.200984
v -0.000000 0.897765 0.036529
v -0.000000 0.996146 0.274043
v -0.000000 1.048231 0.316796
v -0.000000 1.152437 0.218262
v 0.426196 1.142937 0.036530
v 0.397389 1.073391 -0.145203
v 0.357512 0.977118 -0.243737
v 0.337579 0.928998 -0.200984
v 0.299930 0.838105 0.036529
v 0.337579 0.928997 0.274043
v 0.357512 0.977118 0.316796
v 0.397389 1.073391 0.218262
v 0.787508 0.901516 0.036529
v 0.734280 0.848288 -0.145203
v 0.660595 0.774604 -0.243737
v 0.623765 0.737774 -0.200985
v 0.554199 0.668208 0.036529
v 0.623765 0.737774 0.274043
v 0.660595 0.774604 0.316796
v 0.734280 0.848288 0.218262
v 1.028929 0.540205 0.036529
v 0.959382 0.511398 -0.145203
v 0.863109 0.471520 -0.243738
v 0.814989 0.451588 -0.200985
v 0.724096 0.413939 0.036529
v 0.814989 0.451588 0.274043
v 0.863109 0.471520 0.316796
v 0.959382 0.511398 0.218262
vn 0.9087 -0.1807 0.3764
vn 0.9087 -0.1807 -0.3764
vn 0.6807 -0.1354 -0.7199
vn -0.6295 0.1252 -0.7669
vn -0.9087 0.1807 -0.3764
vn -0.9087 0.1807 0.3764
vn -0.6295 0.1252 0.7669
vn 0.6807 -0.1354 0.7199
vn 0.7703 -0.5147 0.3764
vn 0.7703 -0.5147 -0.3764
vn 0.5771 -0.3856 -0.7199
vn -0.5336 0.3566 -0.7669
vn -0.7703 0.5147 -0.3764
vn -0.7703 0.5147 0.3764
vn -0.5336 0.3566 0.7669
vn 0.5771 -0.3856 0.7199
vn 0.5147 -0.7703 0.3764
vn 0.5147 -0.7703 -0.3764
vn 0.3856 -0.5771 -0.7199
vn -0.3566 0.5336 -0.7669
vn -0.5147 0.7703 -0.3764
vn -0.5147 0.7703 0.3764
vn -0.3566 0.5336 0.7669
vn 0.3856 -0.5771 0.7199
vn 0.1807 -0.9087 0.3764
vn 0.1807 -0.9087 -0.3764
vn 0.1354 -0.6807 -0.7199
vn -0.1252 0.6295 -0.7669
vn -0.1807 0.9087 -0.3764
vn -0.1807 0.9087 0.3764
vn -0.1252 0.6295 0.7669
vn 0.1354 -0.6807 0.7199
vn -0.1807 -0.9087 0.3764
vn -0.1807 -0.9087 -0.3764
vn -0.1354 -0.6807 -0.7199
vn 0.1252 0.6295 -0.7669
vn 0.1807 0.9087 -0.3764
vn 0.1807 0.9087 0.3764
vn 0.1252 0.6295 0.7669
vn -0.1354 -0.6807 0.7199
vn -0.5147 -0.7703 0.3764
vn -0.5147 -0.7703 -0.3764
vn -0.3856 -0.5771 -0.7199
vn 0.3566 0.5336 -0.7669
vn 0.5147 0.7703 -0.3764
vn 0.5147 0.7703 0.3764
vn 0.3566 0.5336 0.7669
vn -0.3856 -0.5771 0.7199
vn -0.7703 -0.5147 0.3764
vn -0.7703 -0.5147 -0.3764
vn -0.5771 -0.3856 -0.7199
vn 0.5336 0.3566 -0.7669
vn 0.7703 0.5147 -0.3764
vn 0.7703 0.5147 0.3764
vn 0.5336 0.3566 0.7669
vn -0.5771 -0.3856 0.7199
vn -0.9087 -0.1807 0.3764
vn -0.9087 -0.1807 -0.3764
vn -0.6807 -0.1354 -0.7199
vn 0.6295 0.1252 -0.7669
vn 0.9087 0.1807 -0.3764
vn 0.9087 0.1807 0.3764
vn 0.6295 0.1252 0.7669
vn -0.6807 -0.1354 0.7199
vn -0.6807 0.1354 -0.7199
vn 0.6295 -0.1252 -0.7669
vn 0.6295 -0.1252 0.7669
vn -0.6807 0.1354 0.7199
vn -0.5771 0.3856 -0.7199
vn 0.5336 -0.3566 -0.7669
vn 0.5336 -0.3566 0.7669
vn -0.5771 0.3856 0.7199
vn -0.3856 0.5771 -0.7199
vn 0.3566 -0.5336 -0.7669
vn 0.3566 -0.5336 0.7669
vn -0.3856 0.5771 0.7199
vn -0.1354 0.6807 -0.7199
vn 0.1252 -0.6295 -0.7669
vn 0.1252 -0.6295 0.7669
vn -0.1354 0.6807 0.7199
vn 0.1354 0.6807 -0.7199
vn -0.1252 -0.6295 -0.7669
vn -0.1252 -0.6295 0.7669
vn 0.1354 0.6807 0.7199
vn 0.3856 0.5771 -0.7199
vn -0.3566 -0.5336 -0.7669
vn -0.3566 -0.5336 0.7669
vn 0.3856 0.5771 0.7199
vn 0.5771 0.3856 -0.7199
vn -0.5336 -0.3566 -0.7669
vn -0.5336 -0.3566 0.7669
vn 0.5771 0.3856 0.7199
vn 0.6807 0.1354 -0.7199
vn -0.6295 -0.1252 -0.7669
vn -0.6295 -0.1252 0.7669
vn 0.6807 0.1354 0.7199
usemtl None
s off
f 9//1 1//1 8//1 16//1
f 1//2 9//2 10//2 2//2
f 2//3 10//3 11//3 3//3
f 3//4 11//4 12//4 4//4
f 4//5 12//5 13//5 5//5
f 5//6 13//6 14//6 6//6
f 6//7 14//7 15//7 7//7
f 7//8 15//8 16//8 8//8
f 17//9 9//9 16//9 24//9
f 9//10 17//10 18//10 10//10
f 10//11 18//11 19//11 11//11
f 11//12 19//12 20//12 12//12
f 12//13 20//13 21//13 13//13
f 13//14 21//14 22//14 14//14
f 14//15 22//15 23//15 15//15
f 15//16 23//16 24//16 16//16
f 25//17 17//17 24//17 32//17
f 17//18 25//18 26//18 18//18
f 18//19 26//19 27//19 19//19
f 19//20 27//20 28//20 20//20
f 20//21 28//21 29//21 21//21
f 21//22 29//22 30//22 22//22
f 22//23 30//23 31//23 23//23
f 23//24 31//24 32//24 24//24
f 33//25 25//25 32//25 40//25
f 25//26 33//26 34//26 26//26
f 26//27 34//27 35//27 27//27
f 27//28 35//28 36//28 28//28
f 28//29 36//29 37//29 29//29
f 29//30 37//30 38//30 30//30
f 30//31 38//31 39//31 31//31
f 31//32 39//32 40//32 32//32
f 41//33 33//33 40//33 48//33
f 33//34 41//34 42//34 34//34
f 34//35 42//35 43//35 35//35
f 35//36 43//36 44//36 36//36
f 36//37 44//37 45//37 37//37
f 37//38 45//38 46//38 38//38
f 38//39 46//39 47//39 39//39
f 39//40 47//40 48//40 40//40
f 49//41 41//41 48//41 56//41
f 41//42 49//42 50//42 42//42
f 42//43 50//43 51//43 43//43
f 43//44 51//44 52//44 44//44
f 44//45 52//45 53//45 45//45
f 45//46 53//46 54//46 46//46
f 46//47 54//47 55//47 47//47
f 47//48 55//48 56//48 48//48
f 57//49 49//49 56//49 64//49
f 49//50 57//50 58//50 50//50
f 50//51 58//51 59//51 51//51
f 51//52 59//52 60//52 52//52
f 52//53 60//53 61//53 53//53
f 53//54 61//54 62//54 54//54
f 54//55 62//55 63//55 55//55
f 55//56 63//56 64//56 56//56
f 65//57 57//57 64//57 72//57
f 57//58 65//58 66//58 58//58
f 58//59 66//59 67//59 59//59
f 59//60 67//60 68//60 60//60
f 60//61 68//61 69//61 61//61
f 61//62 69//62 70//62 62//62
f 62//63 70//63 71//63 63//63
f 63//64 71//64 72//64 64//64
f 73//6 65//6 72//6 80//6
f 65//5 73//5 74//5 66//5
f 66//65 74//65 75//65 67//65
f 67//66 75//66 76//66 68//66
f 68//2 76//2 77//2 69//2
f 69//1 77//1 78//1 70//1
f 70//67 78//67 79//67 71//67
f 71//68 79//68 80//68 72//68
f 81//14 73//14 80//14 88//14
f 73//13 81//13 82//13 74//13
f 74//69 82//69 83//69 75//69
f 75//70 83//70 84//70 76//70
f 76//10 84//10 85//10 77//10
f 77//9 85//9 86//9 78//9
f 78//71 86//71 87//71 79//71
f 79//72 87//72 88//72 80//72
f 89//22 81//22 88//22 96//22
f 81//21 89//21 90//21 82//21
f 82//73 90//73 91//73 83//73
f 83//74 91//74 92//74 84//74
f 84//18 92//18 93//18 85//18
f 85//17 93//17 94//17 86//17
f 86//75 94//75 95//75 87//75
f 87//76 95//76 96//76 88//76
f 97//30 89//30 96//30 104//30
f 89//29 97//29 98//29 90//29
f 90//77 98//77 99//77 91//77
f 91//78 99//78 100//78 92//78
f 92//26 100//26 101//26 93//26
f 93//25 101//25 102//25 94//25
f 94//79 102//79 103//79 95//79
f 95//80 103//80 104//80 96//80
f 105//38 97//38 104//38 112//38
f 97//37 105//37 106//37 98//37
f 98//81 106//81 107//81 99//81
f 99//82 107//82 108//82 100//82
f 100//34 108//34 109//34 101//34
f 101//33 109//33 110//33 102//33
f 102//83 110//83 111//83 103//83
f 103//84 111//84 112//84 104//84
f 113//46 105//46 112//46 120//46
f 105//45 113//45 114//45 106//45
f 106//85 114//85 115//85 107//85
f 107//86 115//86 116//86 108//86
f 108//42 116//42 117//42 109//42
f 109//41 117//41 118//41 110//41
f 110//87 118//87 119//87 111//87
f 111//88 119//88 120//88 112//88
f 121//54 113//54 120//54 128//54
f 113//53 121//53 122//53 114//53
f 114//89 122//89 123//89 115//89
f 115//90 123//90 124//90 116//90
f 116//50 124//50 125//50 117//50
f 117//49 125//49 126//49 118//49
f 118//91 126//91 127//91 119//91
f 119//92 127//92 128//92 120//92
f 1//62 121//62 128//62 8//62
f 121//61 1//61 2//61 122//61
f 122//93 2//93 3//93 123//93
f 123//94 3//94 4//94 124//94
f 124//58 4//58 5//58 125//58
f 125//57 5//57 6//57 126//57
f 126//95 6//95 7//95 127//95
f 127//96 7//96 8//96 128//96
